# xmcd
#
# Track frame offsets:
#	150
#	18045
#	44483
#
# Disc length: 767 seconds
#
# Revision: 1
# Processed by: cddbd v1.5.2PL0 Copyright (c) Steve Scherf et al.
# Submitted via: audiograbber 1.83.01
#
DISCID=1902fd03
DTITLE=C.O. Club Oriented - California [CDM)
DYEAR=2004
DGENRE=Dance
TTITLE0=California (Chino Radio Edit)
TTITLE1=California (Chino Mix)
TTITLE2=California (Orange County)
EXTD=TR.
EXTT0=
EXTT1=
EXTT2=
PLAYORDER=
